# xmcd
# Track frame offsets:
# 150
# 11132
# 22728
# 32849
# 45886
# 59462
# 71930
# 85546
# 99041
# 112914
# 127228
# 142001
# 154866
# 168099
# 181125
# 194543
# 207471
# 220263
# 232965
# 245208
# 257559
#
# Disc length: 3607 seconds
# Revision: 1
# Processed by: cddbd v1.5.2PL0 Copyright (c) Steve Scherf et al.
# Submitted via: VisiTrax 2.10.0.248 - For more info visit www.synapsa.com
#
DISCID=200e1515
DTITLE=King Oliver - Off The Record CD 2 The Complete 1923 Jazz Band Recordin
DTITLE=gs
DYEAR=1923
DGENRE=Jazz
TTITLE0=King Oliver and His Creole Jazz Band - Alligator Hop
TTITLE1=King Oliver and His Creole Jazz Band - Zulus Ball
TTITLE2=King Oliver and His Creole Jazz Band - Workingman Blues
TTITLE3=King Oliver and His Creole Jazz Band - Krooked Blues
TTITLE4=King Oliver's Jazz Band - Chattanooga Stomp
TTITLE5=King Oliver's Jazz Band - London (Cafe) Blues
TTITLE6=King Oliver's Jazz Band - Camp Meeting Blues
TTITLE7=King Oliver's Jazz Band - New Orleans Stomp
TTITLE8=King Oliver's Jazz Band - Buddy's Habit
TTITLE9=King Oliver's Jazz Band - Tears
TTITLE10=King Oliver's Jazz Band - I Ain't Gonna Tell Nobody
TTITLE11=King Oliver's Jazz Band - Room Rent Blues
TTITLE12=King Oliver's Jazz Band - Riverside Blues
TTITLE13=King Oliver's Jazz Band - Sweet Baby Doll
TTITLE14=King Oliver's Jazz Band - Working Man Blues
TTITLE15=King Oliver's Jazz Band - Mabel's Dream
TTITLE16=King Oliver's Jazz Band - Mabel's Dream (tk 1)
TTITLE17=King Oliver's Jazz Band - Mabel's Dream (tk 2)
TTITLE18=King Oliver's Jazz Band - The Southern Stomp (tk 1)
TTITLE19=King Oliver's Jazz Band - The Southern Stomp (tk 2)
TTITLE20=King Oliver's Jazz Band - Riverside Blues
EXTD=
EXTT0=
EXTT1=
EXTT2=
EXTT3=
EXTT4=
EXTT5=
EXTT6=
EXTT7=
EXTT8=
EXTT9=
EXTT10=
EXTT11=
EXTT12=
EXTT13=
EXTT14=
EXTT15=
EXTT16=
EXTT17=
EXTT18=
EXTT19=
EXTT20=
PLAYORDER=
